<svg xmlns="http://www.w3.org/2000/svg" width="165.13" height="36.35" viewBox="0 0 165.13 36.35"><defs><style>.a{fill:#194390;}</style></defs><g transform="translate(0 -0.002)"><g transform="translate(0 0.002)"><path class="a" d="M13.68,10.435a9.713,9.713,0,0,0-7.692,3.377V4.769A4.635,4.635,0,0,0,4.479,1.115,5.222,5.222,0,0,0,.162.088L0,.114V35.766H5.7V32.614a9.691,9.691,0,0,0,7.98,3.72c6.69,0,11.363-5.409,11.363-13.149C25.043,15.682,20.37,10.435,13.68,10.435ZM12.569,31.275c-3.931,0-6.676-3.241-6.676-7.885,0-4.69,2.664-7.839,6.638-7.839,3.879,0,6.485,3.149,6.485,7.839s-2.6,7.885-6.448,7.885ZM76.43,4.962,67.948,26.782,59.434,4.957c-.577-1.489-2.621-4.8-9.236-3.42l-.15.032V35.763H55.8V11.087l9.749,24.7.049.118h4.465L79.9,10.85V35.763h5.94V1.568l-.15-.032C80.078.373,77.227,2.544,76.43,4.962Zm26.994,5.484a15.609,15.609,0,0,0-11.579,5.631l-.066.087.052.11a3.544,3.544,0,0,0,2.384,2.038,4.521,4.521,0,0,0,3.714-.95,8.974,8.974,0,0,1,5.253-1.939c2.9,0,4.453,1.281,4.736,3.914l-8.1,1.991c-5.391,1.3-8.012,3.865-8.012,7.824a6.88,6.88,0,0,0,2.075,5.039,8.705,8.705,0,0,0,6.176,2.162,9.553,9.553,0,0,0,8.162-4.009v3.429h5.611V19.959c-.009-2.866-1.022-9.524-10.41-9.524Zm4.549,13.49c0,4.906-3.426,7.544-6.638,7.544-2.335,0-3.518-.944-3.518-2.805,0-1.6,1.2-2.664,3.662-3.25l6.505-1.541Zm49.947-2.782-4.015-.921c-2.069-.465-2.8-1.111-2.8-2.473,0-1.518,1.356-2.421,3.628-2.421a9.1,9.1,0,0,1,4.1,1.025,4.939,4.939,0,0,0,4.041.289,3.591,3.591,0,0,0,1.951-2.554l.032-.121-.1-.078a15.856,15.856,0,0,0-9.974-3.449,10.063,10.063,0,0,0-7,2.4,7.01,7.01,0,0,0-2.286,5.1c0,3.839,2.445,6.4,7.065,7.391l3.481.773c2.528.577,3.383,1.227,3.383,2.572,0,1.048-.577,2.805-4.453,2.805a12.541,12.541,0,0,1-7.614-3l-.159-.136-2.976,4.266.133.113a17.1,17.1,0,0,0,11,3.622,10.586,10.586,0,0,0,7.345-2.456,7.6,7.6,0,0,0,2.421-5.663c0-3.738-2.225-5.925-7.21-7.088ZM43.052,10.847a7.794,7.794,0,0,0-6.97,4.586,5.167,5.167,0,0,0-1.336-3.5,4.571,4.571,0,0,0-4.107-.889l-.156.026v24.72h5.989V25.338c0-5.749,2.4-9.045,6.58-9.045a11.279,11.279,0,0,1,1.709.136l.248.035.52-5.4-.17-.032a13.565,13.565,0,0,0-2.318-.2Zm81.874-9.735A5.258,5.258,0,0,0,120.6.091l-.162.026.017,30.9a4.6,4.6,0,0,0,1.512,3.637,4.878,4.878,0,0,0,3.244,1.108,6.9,6.9,0,0,0,1.074-.087l.162-.026-.02-30.9a4.592,4.592,0,0,0-1.5-3.637Zm13.143,0A5.258,5.258,0,0,0,133.74.091l-.162.026.02,30.9a4.592,4.592,0,0,0,1.509,3.637,4.878,4.878,0,0,0,3.244,1.108,6.9,6.9,0,0,0,1.074-.087l.162-.026-.017-30.9a4.618,4.618,0,0,0-1.5-3.637Z" transform="translate(0 -0.002)"/></g></g></svg>